# xmcd CD database file
#
# Track frame offsets:
#	150
#	10137
#	22802
#	35760
#	47470
#	57730
#	74812
#	85650
#	97532
#	111322
#
# Disc length: 1746 seconds
#
# Revision: 0
# Processed by: cddbd v1.5.2PL0 Copyright (c) Steve Scherf et al.
# Submitted via: CDex 1.70beta2
#
DISCID=7a06d00a
DTITLE=David Morgan - -
DYEAR=1996
DGENRE=Country
TTITLE0=Six Pack of Lonely
TTITLE1=Cheat and Win
TTITLE2=Watching Yoo Go
TTITLE3=You Gotta Swim
TTITLE4=Honey-Do Blues
TTITLE5=Cheap Imitation
TTITLE6=Whiskey Down
TTITLE7=Only Daddy
TTITLE8=Baseball Song
TTITLE9=Wonderful Tonight
EXTD=YEAR: 1996
EXTT0=
EXTT1=
EXTT2=
EXTT3=
EXTT4=
EXTT5=
EXTT6=
EXTT7=
EXTT8=
EXTT9=
PLAYORDER=
